<svg xmlns="http://www.w3.org/2000/svg" xmlns:xlink="http://www.w3.org/1999/xlink" style="margin:auto;background:none;display:block;z-index:1;position:relative" width="991" height="808" preserveAspectRatio="xMidYMid" viewBox="0 0 991 808">
<g transform="translate(495.5,404) scale(1,1) translate(-495.5,-404)"><linearGradient id="lg-0.845017392316987" x1="0" x2="1" y1="0" y2="0">
  <stop stop-color="#ffe700" offset="0"></stop>
  <stop stop-color="#ff0d00" offset="1"></stop>
</linearGradient><path d="M 852 404 C 852 517 701 668 593 703 C 485 738 277 703 210 611 C 143 519 145 290 212 198 C 279 106 474 102 582 137 C 690 172 852 291 852 404" fill="url(#lg-0.845017392316987)" opacity="0.4">
  <animate attributeName="d" dur="10s" repeatCount="indefinite" keyTimes="0;0.3333333333333333;0.6666666666666666;1" calcmod="spline" keySplines="0.3 0.1 0.7 0.9;0.3 0.1 0.7 0.9;0.3 0.1 0.7 0.9" begin="-4s" values="M 852 404 C 852 517 701 668 593 703 C 485 738 277 703 210 611 C 143 519 145 290 212 198 C 279 106 474 102 582 137 C 690 172 852 291 852 404;M 861 404 C 861 506 681 644 584 676 C 487 708 278 688 218 606 C 158 524 138 271 198 188 C 258 105 486 103 583 134 C 680 165 861 302 861 404;M 847 404 C 847 507 677 630 579 662 C 481 694 301 674 240 590 C 179 506 185 307 246 223 C 307 139 492 81 590 113 C 688 145 847 301 847 404;M 852 404 C 852 517 701 668 593 703 C 485 738 277 703 210 611 C 143 519 145 290 212 198 C 279 106 474 102 582 137 C 690 172 852 291 852 404"></animate>
</path><path d="M 896 404 C 896 511 678 619 576 652 C 474 685 276 696 213 609 C 150 522 121 264 184 177 C 247 90 481 103 583 136 C 685 169 896 297 896 404" fill="url(#lg-0.845017392316987)" opacity="0.4">
  <animate attributeName="d" dur="10s" repeatCount="indefinite" keyTimes="0;0.3333333333333333;0.6666666666666666;1" calcmod="spline" keySplines="0.3 0.1 0.7 0.9;0.3 0.1 0.7 0.9;0.3 0.1 0.7 0.9" begin="-4s" values="M 896 404 C 896 511 678 619 576 652 C 474 685 276 696 213 609 C 150 522 121 264 184 177 C 247 90 481 103 583 136 C 685 169 896 297 896 404;M 916 404 C 916 513 699 682 596 715 C 493 748 238 725 174 637 C 110 549 147 285 211 197 C 275 109 486 82 589 116 C 692 150 916 295 916 404;M 821 404 C 821 509 670 601 570 633 C 470 665 253 710 191 625 C 129 540 144 279 206 194 C 268 109 485 96 585 128 C 685 160 821 299 821 404;M 896 404 C 896 511 678 619 576 652 C 474 685 276 696 213 609 C 150 522 121 264 184 177 C 247 90 481 103 583 136 C 685 169 896 297 896 404"></animate>
</path><path d="M 808 404 C 808 498 658 600 568 629 C 478 658 306 657 251 581 C 196 505 186 295 241 219 C 296 143 484 134 574 163 C 664 192 808 310 808 404" fill="url(#lg-0.845017392316987)" opacity="0.4">
  <animate attributeName="d" dur="10s" repeatCount="indefinite" keyTimes="0;0.3333333333333333;0.6666666666666666;1" calcmod="spline" keySplines="0.3 0.1 0.7 0.9;0.3 0.1 0.7 0.9;0.3 0.1 0.7 0.9" begin="-4s" values="M 808 404 C 808 498 658 600 568 629 C 478 658 306 657 251 581 C 196 505 186 295 241 219 C 296 143 484 134 574 163 C 664 192 808 310 808 404;M 909 404 C 909 513 677 608 573 642 C 469 676 257 712 193 623 C 129 534 148 287 212 198 C 276 109 491 64 595 98 C 699 132 909 295 909 404;M 877 404 C 877 509 673 609 573 642 C 473 675 305 672 243 587 C 181 502 175 301 237 216 C 299 131 469 146 569 178 C 669 210 877 299 877 404;M 808 404 C 808 498 658 600 568 629 C 478 658 306 657 251 581 C 196 505 186 295 241 219 C 296 143 484 134 574 163 C 664 192 808 310 808 404"></animate>
</path><path d="M 865 404 C 865 518 693 644 585 679 C 477 714 287 696 220 604 C 153 512 126 276 193 184 C 260 92 477 95 585 130 C 693 165 865 290 865 404" fill="url(#lg-0.845017392316987)" opacity="0.4">
  <animate attributeName="d" dur="10s" repeatCount="indefinite" keyTimes="0;0.3333333333333333;0.6666666666666666;1" calcmod="spline" keySplines="0.3 0.1 0.7 0.9;0.3 0.1 0.7 0.9;0.3 0.1 0.7 0.9" begin="-4s" values="M 865 404 C 865 518 693 644 585 679 C 477 714 287 696 220 604 C 153 512 126 276 193 184 C 260 92 477 95 585 130 C 693 165 865 290 865 404;M 852 404 C 852 513 696 670 593 704 C 490 738 257 711 193 623 C 129 535 157 292 221 204 C 285 116 468 138 571 172 C 674 206 852 295 852 404;M 916 404 C 916 513 691 651 587 685 C 483 719 303 678 239 590 C 175 502 105 255 169 167 C 233 79 481 96 585 130 C 689 164 916 295 916 404;M 865 404 C 865 518 693 644 585 679 C 477 714 287 696 220 604 C 153 512 126 276 193 184 C 260 92 477 95 585 130 C 693 165 865 290 865 404"></animate>
</path><path d="M 923 404 C 923 515 688 634 582 669 C 476 704 248 721 183 631 C 118 541 107 259 172 169 C 237 79 485 77 591 111 C 697 145 923 293 923 404" fill="url(#lg-0.845017392316987)" opacity="0.4">
  <animate attributeName="d" dur="10s" repeatCount="indefinite" keyTimes="0;0.3333333333333333;0.6666666666666666;1" calcmod="spline" keySplines="0.3 0.1 0.7 0.9;0.3 0.1 0.7 0.9;0.3 0.1 0.7 0.9" begin="-4s" values="M 923 404 C 923 515 688 634 582 669 C 476 704 248 721 183 631 C 118 541 107 259 172 169 C 237 79 485 77 591 111 C 697 145 923 293 923 404;M 884 404 C 884 504 659 585 564 616 C 469 647 256 701 198 620 C 140 539 153 279 212 198 C 271 117 491 93 586 124 C 681 155 884 304 884 404;M 799 404 C 799 498 655 588 565 617 C 475 646 281 676 226 600 C 171 524 160 276 215 200 C 270 124 473 167 563 196 C 653 225 799 310 799 404;M 923 404 C 923 515 688 634 582 669 C 476 704 248 721 183 631 C 118 541 107 259 172 169 C 237 79 485 77 591 111 C 697 145 923 293 923 404"></animate>
</path></g>
</svg>